<?xml version="1.0" encoding="UTF-8"?>
<svg width="18px" height="26px" viewBox="0 0 18 26" version="1.1" xmlns="http://www.w3.org/2000/svg" xmlns:xlink="http://www.w3.org/1999/xlink">
    <!-- Generator: Sketch 46.2 (44496) - http://www.bohemiancoding.com/sketch -->
    <title>big-light copy</title>
    <desc>Created with Sketch.</desc>
    <defs></defs>
    <g id="Page-1" stroke="none" stroke-width="1" fill="none" fill-rule="evenodd">
        <g id="Help" transform="translate(-1184.000000, -63.000000)" fill-rule="nonzero" fill="#333333">
            <g id="Help/nerozbalene" transform="translate(1166.000000, 49.000000)">
                <g id="big-light-copy" transform="translate(18.000000, 14.000000)">
                    <path d="M9.00658389,0 C4.05404698,0 0.024885906,3.91496614 0.024885906,8.7271377 C0.024885906,11.7677291 1.66548322,14.5950971 4.32634228,16.1765779 L4.61355705,18.2363883 C4.74952349,19.2111828 5.58042282,19.9462844 6.54644295,19.9462844 L11.4667248,19.9462844 C12.432745,19.9462844 13.2636443,19.2111828 13.3995503,18.2363883 L13.6867651,16.1765779 C16.3476242,14.5950971 17.9882215,11.7676704 17.9882215,8.7271377 C17.9882819,3.91496614 13.9591208,0 9.00658389,0 Z M12.8300134,15.3047269 C12.6657181,15.3951106 12.554396,15.5548668 12.5290268,15.7366321 L12.2024295,18.0787449 C12.1482483,18.4676885 11.8250336,18.7724108 11.4667248,18.7724108 L6.54644295,18.7724108 C6.18813423,18.7724108 5.86497987,18.4676885 5.81073826,18.0786862 L5.48414094,15.7365734 C5.45877181,15.5548081 5.34744966,15.3949932 5.18315436,15.3046682 C2.74663087,13.9644063 1.233,11.443991 1.233,8.72707901 C1.2329396,4.56220767 4.72016779,1.1738149 9.00658389,1.1738149 C13.293,1.1738149 16.7802282,4.56220767 16.7802282,8.7271377 C16.7802282,11.4440497 15.2665973,13.964465 12.8300134,15.3047269 Z" id="Shape"></path>
                    <path d="M12.1700537,20.6116027 L5.84305369,20.6116027 C5.50944966,20.6116027 5.23902685,20.8743612 5.23902685,21.1985102 C5.23902685,21.5226591 5.50944966,21.7854176 5.84305369,21.7854176 L12.1700537,21.7854176 C12.5036577,21.7854176 12.7740805,21.5226591 12.7740805,21.1985102 C12.7740805,20.8743612 12.5036577,20.6116027 12.1700537,20.6116027 Z" id="Shape"></path>
                    <path d="M11.4040872,22.4507359 L6.60902013,22.4507359 C6.27541611,22.4507359 6.00499329,22.7134944 6.00499329,23.0376433 C6.00499329,24.6457698 7.35148993,25.9541038 9.00652349,25.9541038 C10.661557,25.9541038 12.0080537,24.6457698 12.0080537,23.0376433 C12.0081141,22.7134944 11.7376913,22.4507359 11.4040872,22.4507359 Z M9.00658389,24.7802889 C8.22950336,24.7802889 7.56622148,24.2975576 7.31772483,23.6245508 L10.695443,23.6245508 C10.4469463,24.2975576 9.78366443,24.7802889 9.00658389,24.7802889 Z" id="Shape"></path>
                    <path d="M12.8347852,9.07047856 C12.8347852,9.05956208 12.8347248,9.0486456 12.8340604,9.03778781 C12.8335772,9.0296298 12.8326107,9.02147178 12.8318255,9.01331377 C12.8307383,9.00280813 12.829651,8.99230248 12.8280201,8.98191422 C12.8265705,8.97293454 12.8246376,8.96407223 12.8227651,8.95515124 C12.8207718,8.94581941 12.8188993,8.93642889 12.8164832,8.92721445 C12.8139463,8.91741309 12.8108054,8.90772912 12.8077248,8.89804515 C12.8050671,8.88982844 12.8025302,8.88161174 12.7995705,8.87357111 C12.7958859,8.86365237 12.7917181,8.8539684 12.7874899,8.84416704 C12.784047,8.83630248 12.7807248,8.82843792 12.7769799,8.82074944 C12.7725705,8.81171106 12.7676779,8.80279007 12.7627248,8.79392777 C12.7580738,8.78559368 12.7534228,8.77725959 12.748349,8.76916027 C12.7435772,8.76147178 12.738443,8.75390068 12.7332483,8.74638826 C12.7270268,8.7372912 12.7206242,8.7283702 12.7138591,8.71962528 C12.7115034,8.71657336 12.7095101,8.71328668 12.7070336,8.71023476 C12.7041946,8.70671332 12.7010537,8.70372009 12.6981544,8.70025734 C12.6907248,8.69145372 12.6830537,8.68282619 12.6750805,8.67443341 C12.6692819,8.66832957 12.6634832,8.66234312 12.657443,8.65653273 C12.6495906,8.64890293 12.6414362,8.6415079 12.6331007,8.63428894 C12.6263356,8.62841986 12.6195705,8.62266817 12.6125638,8.61715124 C12.6045302,8.61081264 12.596255,8.6047088 12.5878591,8.59872235 C12.5800671,8.59314673 12.5722148,8.58768849 12.5641812,8.58258239 C12.5560872,8.57735892 12.5477517,8.57242889 12.5393557,8.56761625 C12.5304765,8.56251016 12.5215973,8.55758014 12.5125369,8.55294357 C12.504443,8.54883521 12.4961678,8.54490293 12.4878322,8.54114673 C12.4779262,8.53662754 12.4678993,8.53234312 12.4577517,8.52835214 C12.4497181,8.52518284 12.4415638,8.52224831 12.4332886,8.51937246 C12.4224765,8.51561625 12.4115436,8.51221219 12.4005503,8.50910158 C12.3960201,8.50781038 12.3917919,8.50610835 12.3872013,8.50493454 C12.3832148,8.5038781 12.3792282,8.50340858 12.3752416,8.50246953 C12.3646711,8.49994582 12.3540403,8.49777427 12.343349,8.49583747 C12.3338054,8.49407675 12.3243221,8.49243341 12.3148389,8.49108352 C12.3055973,8.48985102 12.2963557,8.48897065 12.2870537,8.48809029 C12.2762416,8.48709255 12.2654899,8.48621219 12.2547383,8.48574266 C12.2464631,8.48544921 12.2382483,8.4855079 12.2299732,8.4855079 C12.218557,8.4855079 12.2072013,8.48556659 12.1958456,8.48621219 C12.1876309,8.48668172 12.1794765,8.48756208 12.1712617,8.48832506 C12.1602081,8.48938149 12.1492148,8.49049661 12.1382819,8.49213995 C12.1293423,8.49348984 12.1204631,8.49530926 12.1115839,8.49706998 C12.1016174,8.49900677 12.0917114,8.50094357 12.0819262,8.50334989 C12.0722013,8.50575621 12.0625973,8.50869074 12.0529329,8.51156659 C12.0441141,8.51420767 12.0352953,8.51679007 12.0266577,8.51984199 C12.0168121,8.52330474 12.0070872,8.52723702 11.9973624,8.53122799 C11.9889664,8.53469074 11.9805705,8.53809481 11.9722953,8.54185102 C11.9632349,8.54601806 11.9542953,8.55065463 11.9454161,8.55534989 C11.9365973,8.55998646 11.9278389,8.56462302 11.9192617,8.56967043 C11.9115302,8.57424831 11.9039195,8.57906095 11.8963087,8.58399097 C11.8868255,8.59009481 11.8775235,8.59643341 11.8684027,8.60306546 C11.8652617,8.6053544 11.8619396,8.60723251 11.8588591,8.60958014 L10.6186711,9.55262302 L9.37842282,8.60958014 C9.1597651,8.44330926 8.85255705,8.44330926 8.63389933,8.60958014 L7.39395302,9.55256433 L6.15388591,8.60958014 C6.15074497,8.60717381 6.14742282,8.60529571 6.14422148,8.60294808 C6.13522148,8.59637472 6.12604027,8.5901535 6.11667785,8.58410835 C6.10894631,8.57906095 6.10121477,8.57413093 6.09330201,8.56949436 C6.08490604,8.56456433 6.07632886,8.56004515 6.06775168,8.55552596 C6.05863087,8.55071332 6.04951007,8.54601806 6.04020805,8.54173363 C6.0322349,8.53803612 6.02414094,8.53474944 6.01598658,8.53146275 C6.00602013,8.5273544 5.99599329,8.52330474 5.98584564,8.5197246 C5.97751007,8.51679007 5.96899329,8.51432506 5.96053691,8.51174266 C5.95057047,8.50874944 5.94066443,8.50569752 5.93063758,8.50323251 C5.92109396,8.50088488 5.91148993,8.49900677 5.9018255,8.49712867 C5.8927047,8.49530926 5.88358389,8.49343115 5.87440268,8.49208126 C5.86371141,8.49043792 5.85283893,8.48944018 5.84202685,8.48838375 C5.83363087,8.48756208 5.8252953,8.48662302 5.81689933,8.48621219 C5.80572483,8.48556659 5.79455034,8.4855079 5.78325503,8.4855079 C5.77479866,8.4855079 5.76640268,8.48544921 5.75800671,8.48574266 C5.74737584,8.4861535 5.73674497,8.48703386 5.72605369,8.4880316 C5.71663087,8.48885327 5.70726846,8.48979233 5.69796644,8.49102483 C5.68848322,8.49231603 5.6790604,8.49395937 5.66957718,8.49572009 C5.65888591,8.49765688 5.64819463,8.49982844 5.63762416,8.50235214 C5.63363758,8.5032912 5.62965101,8.50381941 5.62566443,8.50481716 C5.62107383,8.50599097 5.61684564,8.507693 5.61231544,8.5089842 C5.60132215,8.51209481 5.59044966,8.51549887 5.57963758,8.51919639 C5.57136242,8.52207223 5.56314765,8.52500677 5.55505369,8.52823476 C5.54496644,8.53216704 5.535,8.53645147 5.52509396,8.54097065 C5.51675839,8.54478555 5.50848322,8.54865914 5.50038926,8.55282619 C5.49132886,8.55746275 5.48238926,8.56239278 5.47357047,8.56749887 C5.4651745,8.57231151 5.45689933,8.57724153 5.44880537,8.58246501 C5.44077181,8.5876298 5.43285906,8.59308804 5.42506711,8.59866366 C5.41673154,8.60459142 5.40851678,8.61063657 5.40054362,8.61697517 C5.39347651,8.62255079 5.3865906,8.62841986 5.3797651,8.63434763 C5.37155034,8.6415079 5.36357718,8.64872686 5.35578523,8.65629797 C5.34968456,8.66222573 5.3437047,8.66832957 5.33778523,8.67455079 C5.32999329,8.68282619 5.32244295,8.69121896 5.31519463,8.69990519 C5.3122349,8.70342664 5.30897315,8.70653725 5.30607383,8.71011738 C5.30353691,8.71322799 5.30154362,8.71657336 5.29906711,8.71974266 C5.29248322,8.72831151 5.28620134,8.73705643 5.28010067,8.74591874 C5.27478523,8.75360722 5.2695906,8.7613544 5.26469799,8.76921896 C5.25974497,8.77714221 5.25521477,8.78530023 5.25068456,8.79345824 C5.24567114,8.80249661 5.24065772,8.81159368 5.23618792,8.82080813 C5.23250336,8.82832054 5.22924161,8.83600903 5.22585906,8.84369752 C5.22157047,8.85361625 5.21728188,8.8634763 5.21353691,8.87351242 C5.21057718,8.88143567 5.20810067,8.88953499 5.20550336,8.89757562 C5.20236242,8.90737698 5.19922148,8.91717833 5.19662416,8.92715576 C5.19420805,8.93625282 5.19233557,8.94552596 5.19040268,8.95474041 C5.1885302,8.96372009 5.18653691,8.97269977 5.18514765,8.98173815 C5.18351678,8.99206772 5.18242953,9.00251467 5.18134228,9.01296163 C5.18049664,9.02117833 5.1795302,9.02933634 5.17904698,9.03755305 C5.17838255,9.04835214 5.17832215,9.05926862 5.17832215,9.0701851 C5.17832215,9.07840181 5.17826174,9.08655982 5.17856376,9.09471783 C5.17898658,9.1050474 5.17995302,9.11543567 5.18091946,9.12582393 C5.1817651,9.13492099 5.18267114,9.14395937 5.184,9.15305643 C5.18532886,9.16227088 5.18702013,9.17148533 5.18883221,9.18069977 C5.1908255,9.19108804 5.1930604,9.20141761 5.19565772,9.21168849 C5.19662416,9.21556208 5.19716779,9.21943567 5.19819463,9.22330926 L7.52291275,17.6715485 C7.59509396,17.9339549 7.83924161,18.1069752 8.10604027,18.1069752 C8.15762416,18.1069752 8.2102349,18.1005192 8.26242282,18.0869029 C8.58467114,18.0031512 8.77608725,17.6814673 8.68995302,17.3682935 L6.83178523,10.615395 L7.02181208,10.7598916 C7.13114094,10.8430564 7.26257718,10.8846095 7.39407383,10.8846095 C7.52557047,10.8846095 7.65700671,10.8430564 7.76639597,10.7598916 L9.00634228,9.81690745 L10.2465906,10.7599503 C10.4652483,10.9262212 10.772396,10.9262212 10.9911141,10.7599503 L11.1813221,10.6153363 L9.32309396,17.3683521 C9.23689933,17.6814673 9.42831544,18.0032099 9.75062416,18.0869616 C9.80287248,18.1005192 9.85536242,18.1070339 9.90700671,18.1070339 C10.1738054,18.1070339 10.417953,17.9339549 10.4901342,17.6716072 L12.8148523,9.22336795 C12.8159396,9.21955305 12.8164228,9.21567946 12.8173893,9.21180587 C12.8199866,9.20141761 12.8222215,9.19102935 12.8242752,9.18058239 C12.8260872,9.17142664 12.8277785,9.16227088 12.8291074,9.15311512 C12.8304362,9.14401806 12.8313423,9.13492099 12.8321879,9.12576524 C12.8332148,9.11537698 12.8341208,9.1050474 12.8345436,9.09471783 C12.834906,9.08679458 12.8348456,9.07863657 12.8347852,9.07047856 Z" id="Shape"></path>
                </g>
            </g>
        </g>
    </g>
</svg>