<?xml version="1.0" encoding="UTF-8"?>
<svg width="18px" height="20px" viewBox="0 0 18 20" version="1.1" xmlns="http://www.w3.org/2000/svg" xmlns:xlink="http://www.w3.org/1999/xlink">
    <!-- Generator: Sketch 46.2 (44496) - http://www.bohemiancoding.com/sketch -->
    <title>capybara-head</title>
    <desc>Created with Sketch.</desc>
    <defs></defs>
    <g id="Symbols" stroke="none" stroke-width="1" fill="none" fill-rule="evenodd">
        <g id="Pozadie" transform="translate(-1474.000000, -1020.000000)" fill-rule="nonzero" fill="#333333">
            <g id="designed-and-coded">
                <g transform="translate(1280.000000, 1020.000000)">
                    <g id="capybara-head" transform="translate(194.000000, 0.000000)">
                        <path d="M10.7929957,7.25761719 L10.5691696,7.16824219 C9.68928261,6.816875 8.31071739,6.816875 7.43083043,7.16824219 L7.20700435,7.25761719 C6.28196087,7.62699219 5.55730435,8.69542969 5.55730435,9.69003906 L5.55730435,16.5632813 C5.55730435,17.5969531 6.39970435,18.4378906 7.43517391,18.4378906 L10.564787,18.4378906 C11.6002565,18.4378906 12.4426565,17.5969531 12.4426565,16.5632813 L12.4426565,9.69 C12.4426957,8.69542969 11.7180391,7.62699219 10.7929957,7.25761719 Z M10.5648261,17.8128906 L7.43517391,17.8128906 C6.74491304,17.8128906 6.1833913,17.2523047 6.1833913,16.5632813 L6.1833913,15.2472266 C7.55178261,15.216875 8.53102174,14.9855078 9,14.5968359 C9.46897826,14.9855078 10.4482174,15.216875 11.8166087,15.2472266 L11.8166087,16.5632813 C11.8166087,17.2523438 11.2550478,17.8128906 10.5648261,17.8128906 Z M11.8166087,14.6220313 C9.92203043,14.5772656 9.31304348,14.1319922 9.31304348,14.0011719 L9.31304348,13.0639063 C9.31304348,12.8913281 9.17287826,12.7514063 9,12.7514063 C8.82712174,12.7514063 8.68695652,12.8913281 8.68695652,13.0639063 L8.68695652,14.0011719 C8.68695652,14.1319531 8.07796957,14.5772266 6.1833913,14.6219922 L6.1833913,9.69 C6.1833913,8.95792969 6.7586087,8.10976563 7.43951739,7.83789063 L7.66334348,7.74851563 C8.02561304,7.60386719 8.51278696,7.53152344 9,7.53152344 C9.48717391,7.53152344 9.97438696,7.60386719 10.3366565,7.74851563 L10.5604826,7.83789063 C11.2413913,8.10976563 11.8166087,8.95792969 11.8166087,9.69 L11.8166087,14.6220313 Z" id="Shape"></path>
                        <path d="M9.75212609,10.3269531 C9.50865652,10.6970313 9.32478261,10.9396094 9,10.9396094 C8.67521739,10.9396094 8.49134348,10.6970313 8.24791304,10.3269531 C8.05147826,10.0283594 7.82890435,9.68992187 7.43521304,9.68992187 C7.038,9.68992187 6.69713478,9.92855469 6.58706087,10.2837109 C6.48148696,10.6243359 6.61883478,10.9745313 6.94545652,11.1976172 C7.08816522,11.2951172 7.28295652,11.2586328 7.38058696,11.1161719 C7.47821739,10.9737109 7.4417087,10.7792578 7.299,10.6817969 C7.23126522,10.6355078 7.15648696,10.5609375 7.18516957,10.4684375 C7.20806087,10.3944922 7.29610435,10.3149219 7.43521304,10.3149219 C7.49101304,10.3149219 7.65465652,10.56375 7.72458261,10.67 C7.97294348,11.0475391 8.31306522,11.5646094 9.00003913,11.5646094 C9.68701304,11.5646094 10.0271348,11.0475391 10.2754957,10.67 C10.3453826,10.56375 10.5090652,10.3149219 10.5648652,10.3149219 C10.7039739,10.3149219 10.7919783,10.3944922 10.8149087,10.4684375 C10.8435522,10.5609375 10.768813,10.6355078 10.7010783,10.6817969 C10.5584087,10.7792578 10.5218609,10.97375 10.6194913,11.1161719 C10.7171217,11.2585938 10.911913,11.2950391 11.0546217,11.1976172 C11.3812435,10.9745313 11.5185913,10.6243359 11.4130174,10.2837109 C11.3029435,9.92855469 10.9621174,9.68992188 10.5648652,9.68992188 C10.1711348,9.68996094 9.94852174,10.0283594 9.75212609,10.3269531 Z" id="Shape"></path>
                        <path d="M10.3860391,16.3067578 C10.0167261,16.5632031 9.56805652,16.5632031 9,16.5632031 C8.43194348,16.5632031 7.98323478,16.5632031 7.61396087,16.3067578 C7.54337106,16.257732 7.1572862,15.9018662 7.07874511,15.9156391 C6.99946055,15.9295424 6.92552321,15.9737744 6.87590798,16.0449676 C6.84134875,16.0945628 6.77025617,16.1964243 6.81547447,16.3067578 C6.89943227,16.5116165 7.16418145,16.7557629 7.25642609,16.8198438 C7.78691739,17.1882422 8.37614348,17.1882422 9,17.1882422 C9.62385652,17.1882422 10.2130826,17.1882422 10.7435739,16.8198438 C10.8230478,16.7646564 11.0072959,16.6060867 11.0886557,16.446116 C11.1525899,16.3204076 11.1320985,16.1911273 11.0886557,16.1287835 C11.0647381,16.0944504 11.0351617,16.0663853 11.0020546,16.0449676 C10.8985035,15.9779781 10.4935522,16.2320792 10.3860391,16.3067578 Z" id="Shape"></path>
                        <path d="M5.61848696,5.62847656 C5.25574783,5.62847656 4.99247826,5.89616784 4.99247826,6.26497278 C4.99247826,6.63377772 5.25574783,6.90146899 5.61848696,6.90146899 C5.98122609,6.90146899 6.24449565,6.63377772 6.24449565,6.26497278 C6.24449565,5.89616784 5.98122609,5.62847656 5.61848696,5.62847656 Z" id="Shape"></path>
                        <path d="M12.381513,5.62847656 C12.0187739,5.62847656 11.7555043,5.89616784 11.7555043,6.26497278 C11.7555043,6.63377772 12.0187739,6.90146899 12.381513,6.90146899 C12.7442522,6.90146899 13.0075217,6.63377772 13.0075217,6.26497278 C13.0075217,5.89616784 12.7442522,5.62847656 12.381513,5.62847656 Z" id="Shape"></path>
                        <path d="M17.5676087,12.0661328 C17.1786913,11.0348828 16.5879783,10.1880078 16.1133261,9.5075 C15.8673913,9.15492187 15.6549913,8.85039062 15.5407696,8.61605469 C15.0948,7.70089844 14.9464174,7.18601562 14.9464174,5.94097656 C14.9464174,5.04339844 14.7201652,4.25503906 14.2795174,3.59109375 C14.3048739,3.54664062 14.3197826,3.49542969 14.320487,3.440625 C14.3205652,3.43355469 14.3290174,2.72410156 14.3009217,1.98738281 C14.2447696,0.514648437 14.1007696,0.250546875 13.9701913,0.118554687 C13.8945522,0.042109375 13.7966478,0 13.6944783,0 C13.4635696,0 13.202413,0.155859375 12.6785739,0.916484375 C12.4056391,1.3128125 12.1807174,1.70242187 12.171287,1.71882812 C12.1380261,1.77660156 12.1255043,1.84046875 12.1310217,1.90214844 C12.0651652,1.87410156 11.998487,1.84667969 11.9304,1.82019531 C10.4839826,1.25742187 9.06018261,1.24972656 8.99976522,1.2496875 C8.93985652,1.24972656 7.51605652,1.25742187 6.06967826,1.82019531 C6.00163043,1.84667969 5.93491304,1.87410156 5.86905652,1.90214844 C5.87457391,1.84046875 5.86205217,1.77660156 5.8287913,1.71882812 C5.81936087,1.70246094 5.59443913,1.31285156 5.32150435,0.916484375 C4.79758696,0.155859375 4.53646957,0 4.30552174,0 C4.20335217,0 4.10544783,0.042109375 4.0298087,0.118554688 C3.89923043,0.250546875 3.75523043,0.5146875 3.69907826,1.98738281 C3.67098261,2.72410156 3.67943478,3.43355469 3.67951304,3.440625 C3.68021739,3.49539062 3.69508696,3.54664062 3.72044348,3.59109375 C3.27983478,4.25503906 3.05354348,5.04339844 3.05354348,5.94097656 C3.05354348,7.18601562 2.90516087,7.70089844 2.4591913,8.61605469 C2.3450087,8.85039062 2.13256957,9.15492187 1.88663478,9.5075 C1.41198261,10.1880078 0.821269565,11.0348828 0.432352174,12.0661328 C-0.0347086957,13.3045313 -0.094773913,14.4967578 0.248634783,15.7109375 C0.702665217,17.3161719 1.91758696,18.4945313 3.85963043,19.2133203 C5.61646957,19.8635156 7.62468261,20 9,20 C10.3753174,20 12.3835304,19.8635156 14.1402913,19.2133203 C16.0823348,18.4945312 17.2972565,17.3161719 17.7513261,15.7109375 C18.0947348,14.4967578 18.0346304,13.3045313 17.5676087,12.0661328 Z M12.713987,2.03039062 C13.0057826,1.5240625 13.3494652,1.02714844 13.5717652,0.776484375 C13.6379348,1.15855469 13.6912696,1.92539062 13.6963565,2.90058594 C13.3906304,2.61046875 13.0307478,2.35390625 12.6170217,2.13371094 C12.6556435,2.10789063 12.6892174,2.07332031 12.713987,2.03039062 Z M4.42819565,0.776484375 C4.65049565,1.02714844 4.99421739,1.5240625 5.28601304,2.03039062 C5.31078261,2.07332031 5.34435652,2.10789062 5.38297826,2.13375 C4.96925217,2.35398437 4.60933043,2.61050781 4.30364348,2.90066406 C4.30861304,1.92542969 4.36198696,1.15859375 4.42819565,0.776484375 Z M17.1487957,15.5411328 C16.7521304,16.9434766 15.6667304,17.9818359 13.9226478,18.6273047 C12.252913,19.2452734 10.3240565,19.375 9,19.375 C7.67594348,19.375 5.74708696,19.2452734 4.07735217,18.6273047 C2.3333087,17.9818359 1.24786957,16.9434766 0.851204348,15.5411328 C0.155856522,13.0827344 1.50663913,11.1461328 2.40045652,9.8646875 C2.66133913,9.490625 2.88665217,9.16761719 3.0222,8.88949219 C3.48585652,7.93808594 3.67966957,7.318125 3.67966957,5.94101562 C3.67966957,4.27371094 4.55533043,3.08515625 6.28231304,2.40828125 C7.6203,1.88390625 8.98685217,1.87472656 8.99972609,1.8746875 C9.01322609,1.8746875 10.3648304,1.881875 11.7029739,2.40253906 C13.4397,3.07828125 14.3202913,4.26878906 14.3202913,5.94097656 C14.3202913,7.31808594 14.5141043,7.93804687 14.9777609,8.88945312 C15.1133087,9.16757812 15.3386217,9.49058594 15.5995043,9.86464844 C16.4933609,11.1461328 17.8441435,13.0826953 17.1487957,15.5411328 Z" id="Shape"></path>
                    </g>
                </g>
            </g>
        </g>
    </g>
</svg>