<?xml version="1.0" encoding="UTF-8"?>
<svg width="92px" height="113px" viewBox="0 0 92 113" version="1.1" xmlns="http://www.w3.org/2000/svg" xmlns:xlink="http://www.w3.org/1999/xlink">
    <!-- Generator: Sketch 46.2 (44496) - http://www.bohemiancoding.com/sketch -->
    <title>clap</title>
    <desc>Created with Sketch.</desc>
    <defs></defs>
    <g id="Page-1" stroke="none" stroke-width="1" fill="none" fill-rule="evenodd">
        <g id="Success" transform="translate(-586.000000, -327.000000)" fill-rule="nonzero" fill="#68AEC9">
            <g transform="translate(347.000000, 239.000000)" id="clap">
                <g transform="translate(282.500000, 137.500000) scale(-1, 1) rotate(16.000000) translate(-282.500000, -137.500000) translate(240.000000, 69.000000)">
                    <path d="M81.235215,88.6759984 C80.2654039,87.9036762 79.1172838,87.378002 77.9035208,87.1310366 C77.9836809,86.985016 78.058476,86.8364559 78.1291684,86.6856737 L78.8891115,85.9212875 C81.8159025,82.9770671 82.1232881,78.3428167 79.6036095,75.1408383 C78.414147,73.6295248 76.7629749,72.6251568 74.9290756,72.2502647 C75.0600458,72.0077435 75.1761833,71.7598258 75.2815907,71.5080989 C77.2748635,68.6038756 77.2423576,64.7006807 75.0347985,61.8951799 C73.8450204,60.3829141 72.1932171,59.3753718 70.358371,59.0011145 C71.8732078,56.1994231 71.6797506,52.7076254 69.656181,50.13671 C68.1261958,48.1924135 65.8346895,47.0769429 63.3686614,47.0769429 C61.3940085,47.0769429 59.5310748,47.7867301 58.0692572,49.0863137 C57.8480279,47.8232353 57.3235157,46.6033282 56.4875151,45.5408694 C54.9572143,43.5965729 52.665708,42.4814197 50.1996799,42.4811023 L50.1996799,42.4811023 C48.0568169,42.4811023 46.0452399,43.3175465 44.5357681,44.8358437 L25.3352113,64.1486592 L25.2619941,61.5710776 C25.2282259,57.1809356 21.6667814,53.6196194 17.294268,53.6196194 C13.000968,53.6196194 9.49001801,57.0526914 9.3322225,61.3326831 L5.49905414,89.3642 L2.34850912,93.0477291 C0.460328129,95.2561324 0.586880122,98.5968305 2.63727489,100.654134 L7.31969865,105.355998 C5.87618539,107.540277 6.12897379,110.519415 8.01589241,112.412604 L30.0021711,134.492511 C31.0527735,135.546716 32.4473702,136.126672 33.9300167,136.126672 C35.1472512,136.126672 36.3499686,135.715592 37.3159926,134.969617 L41.9059482,131.42449 C46.321382,130.375364 51.1893733,127.992053 56.3833701,124.336141 C60.9187284,121.143368 65.8391078,116.889089 71.0069105,111.690754 L81.9361427,100.697623 C83.5478659,99.0764765 84.3961746,96.8287111 84.2636263,94.5307908 C84.1310781,92.2366797 83.0274564,90.1028739 81.235215,88.6759984 Z M60.3822237,52.1248126 C61.2037071,51.2988437 62.2858687,50.8858593 63.3683458,50.8858593 C64.6038846,50.8858593 65.839739,51.4239136 66.6867852,52.5003396 C68.0299406,54.2071938 67.7945097,56.6841481 66.2642089,58.2230785 L64.3148032,60.1835642 C64.0143606,60.3851362 63.7218077,60.6006753 63.4478747,60.8447837 C63.2266454,59.5813878 62.7018176,58.3614807 61.865817,57.2993393 C60.8379371,55.993407 59.466063,55.0636365 57.9288192,54.5925612 L60.3822237,52.1248126 Z M47.2135578,47.5292894 C48.0347256,46.7033205 49.1172027,46.2903361 50.1996799,46.2903361 C51.4355343,46.2906536 52.6710731,46.8287078 53.5181193,47.9051338 C54.8612746,49.611988 54.6258437,52.0886249 53.095543,53.6275553 L30.7141444,75.9071291 L30.6406117,73.329865 C30.6213606,70.8459271 29.4729249,68.6280007 27.6879422,67.1700165 L47.2135578,47.5292894 Z M5.31159308,97.9568792 C4.6545326,97.2972469 4.61445255,96.2395496 5.2197561,95.531667 L9.09552925,90.999631 C9.09742279,90.997409 9.09900075,90.9942346 9.09931634,90.9913777 L13.1136339,61.63393 C13.1136339,59.3210902 14.9948719,57.4288533 17.294268,57.4288533 C19.5936641,57.4288533 21.4752177,59.3210902 21.4752177,61.63393 L21.5840966,65.4542741 C17.8007916,65.976774 14.8550651,69.1787525 14.7105244,73.0908356 L10.8776717,101.12267 L9.76268863,102.426698 L5.31159308,97.9568792 Z M79.2580374,98.0038597 L68.3291208,108.996991 C58.9948856,118.3858 49.2377585,125.922052 40.6666224,127.800956 C40.4062598,127.858412 40.1613611,127.968563 39.9499152,128.132042 L35.009338,131.94826 C34.6893287,132.195543 34.3090415,132.317121 33.9303323,132.317121 C33.4749345,132.317121 33.0214302,132.140944 32.6780672,131.796208 L10.6905262,109.715349 C10.0331501,109.056034 9.99307007,107.998337 10.5986892,107.290137 L14.4741468,102.758418 C14.4763559,102.755879 14.4776183,102.753022 14.4782495,102.750165 L18.4922515,73.3927174 C18.4922515,71.0798776 20.373805,69.1873232 22.6732011,69.1873232 C24.9725972,69.1873232 26.8538352,71.0798776 26.8538352,73.3927174 L27.0513951,80.320444 C27.0842166,81.4714675 28.0256246,82.2209342 29.0052191,82.2209342 C29.4830239,82.2209342 29.9702964,82.0422177 30.3651007,81.6454225 L52.5924909,59.2880768 C53.4139743,58.4617905 54.4958203,58.0491235 55.578613,58.0491235 C56.8141518,58.0491235 58.0500062,58.5871778 58.8970524,59.6636038 C60.2402078,61.370458 60.0044613,63.8474123 58.4741605,65.3863427 L43.162316,80.78771 C42.3673423,81.5876491 42.3673423,82.8837409 43.162316,83.6830451 L43.162316,83.6830451 C43.5646946,84.0877762 44.0920471,84.2903005 44.6193997,84.2903005 C45.1467523,84.2903005 45.6744204,84.0877762 46.0764834,83.6830451 L65.7611568,63.8836 C66.5823246,63.0573137 67.6644862,62.6446467 68.7472789,62.6446467 C69.9828177,62.6449641 71.2186721,63.1830184 72.0657184,64.2594444 C73.4088737,65.9659812 73.1731272,68.4429355 71.6428264,69.9818659 L52.0506211,89.6886197 C51.2449173,90.4993516 51.2449173,91.8129024 52.0506211,92.6236344 C52.4476346,93.0229691 52.9677286,93.2226364 53.4884538,93.2226364 C54.0085477,93.2226364 54.5289573,93.0229691 54.9259708,92.6236344 L70.3302834,77.1295758 C71.1517668,76.3032895 72.2339284,75.8906225 73.3164055,75.8906225 C74.5519443,75.8906225 75.7877987,76.4286767 76.6348449,77.5054202 C77.9780003,79.2119569 77.7422538,81.6889112 76.211953,83.2278417 L60.9534434,98.5758797 C60.1291197,99.4047055 60.1291197,100.749365 60.9534434,101.578191 L60.9780595,101.603268 C61.3589779,101.986414 61.8582428,102.177828 62.3571922,102.177828 C62.8564572,102.177828 63.3557222,101.986414 63.7363249,101.603268 L73.1958497,92.088437 C74.0482611,91.231042 75.1894381,90.7777432 76.3268281,90.7777432 C77.2316275,90.7777432 78.1339022,91.0647054 78.8853244,91.6630726 C80.8924832,93.2610462 81.0168261,96.2351055 79.2580374,98.0038597 Z" id="Shape"></path>
                    <g id="Group" transform="translate(52.655114, 32.368074) rotate(-47.000000) translate(-52.655114, -32.368074) translate(32.706135, 7.222505)" stroke="#FFFFFF" stroke-width="1.74">
                        <path d="M32.9327526,20.2913792 C34.6277433,19.1468702 35.0294028,16.9063127 33.8300637,15.2879661 C32.6307247,13.6696195 30.2853088,13.2855239 28.5896915,14.4312295 L19.2005086,20.774191 C17.505518,21.9187 17.1038584,24.1592575 18.3031975,25.7776041 C19.0357091,26.7659622 20.1968247,27.2942432 21.3748589,27.2942432 C22.1255424,27.2942432 22.8837452,27.0800591 23.5435697,26.6337424 L32.9327526,20.2913792 Z" id="Shape" transform="translate(26.066631, 20.532755) rotate(1.000000) translate(-26.066631, -20.532755) "></path>
                        <path d="M34.8394095,38.0026511 C36.5578073,36.8333483 36.9650136,34.5442531 35.7491122,32.890848 C34.5332107,31.2374428 32.1554055,30.8450265 30.4363724,32.0155518 L20.9175284,38.4959221 C19.1991306,39.6652249 18.7919243,41.95432 20.0078258,43.6077252 C20.7504531,44.6174943 21.9276033,45.1572195 23.1219057,45.1572195 C23.8829558,45.1572195 24.6516291,44.9383955 25.3205655,44.4824102 L34.8394095,38.0026511 Z" id="Shape-Copy" transform="translate(27.878469, 38.249256) rotate(44.000000) translate(-27.878469, -38.249256) "></path>
                        <path d="M17.8311881,11.1299247 C19.5261788,9.98541562 19.9278383,7.74485812 18.7284992,6.12651152 C17.5291602,4.50816491 15.1837443,4.12406934 13.4881271,5.26977498 L4.09894412,11.6127364 C2.40395347,12.7572455 2.00229395,14.997803 3.20163299,16.6161496 C3.93414466,17.6045077 5.09526024,18.1327887 6.27329441,18.1327887 C7.02397788,18.1327887 7.78218072,17.9186045 8.44200518,17.4722879 L17.8311881,11.1299247 Z" id="Shape-Copy-2" transform="translate(10.965066, 11.371301) rotate(-44.000000) translate(-10.965066, -11.371301) "></path>
                    </g>
                </g>
            </g>
        </g>
    </g>
</svg>